<svg width="47" height="34" xmlns="http://www.w3.org/2000/svg" xmlns:xlink="http://www.w3.org/1999/xlink" overflow="hidden"><defs><clipPath id="clip0"><rect x="318" y="303" width="47" height="34"/></clipPath></defs><g clip-path="url(#clip0)" transform="translate(-318 -303)"><path d="M341.541 329.085C342.109 328.01 342.597 327.08 343.139 326.15 343.274 325.918 343.518 325.743 343.762 325.627 344.655 325.133 345.522 324.668 346.416 324.203 346.606 324.116 346.931 324.029 347.093 324.116 351.346 326.557 353.702 330.334 354 335.564 354 335.68 354 335.826 353.973 336 345.685 336 337.424 336 329 336 329.108 335.041 329.135 334.111 329.352 333.211 330.219 329.172 332.413 326.179 335.798 324.203 336.151 324 336.394 324.029 336.774 324.262 337.586 324.785 338.48 325.162 339.32 325.627 339.563 325.743 339.807 325.918 339.943 326.15 340.484 327.08 340.972 328.01 341.541 329.085Z" fill-rule="evenodd"/><path d="M341.5 311C345.068 311 348 313.917 347.972 317.5 347.972 321.028 345.096 323.972 341.583 323.972 337.96 324 335.028 321.111 335.028 317.528 335 313.917 337.877 311.028 341.5 311Z" fill-rule="evenodd"/><path d="M331.669 321.612C332.242 320.684 332.734 319.836 333.334 318.882 333.553 320.419 334.072 321.718 335 322.911 334.836 322.99 334.727 323.096 334.59 323.176 332.515 324.236 330.85 325.747 329.539 327.602 329.403 327.788 329.13 327.973 328.911 327.973 325.744 328 322.604 328 319.464 328 319.355 328 319.246 327.973 319 327.947 319.137 327.019 319.191 326.118 319.41 325.243 320.338 321.612 322.522 318.935 325.935 317.159 326.263 317 326.481 317.027 326.809 317.212 327.655 317.663 328.556 318.034 329.43 318.484 329.676 318.59 329.922 318.749 330.058 318.961 330.604 319.81 331.096 320.658 331.669 321.612Z" fill-rule="evenodd"/><path d="M364 328C362.767 328 361.589 328 360.438 328 358.356 328 356.274 328 354.192 327.974 353.973 327.974 353.671 327.868 353.562 327.71 352.164 325.731 350.411 324.201 348.219 323.067 348.137 323.041 348.11 322.988 348 322.935 348.904 321.748 349.479 320.456 349.671 318.873 350.274 319.875 350.767 320.719 351.342 321.643 351.808 320.878 352.247 320.218 352.63 319.506 352.932 318.926 353.342 318.556 354.027 318.345 354.822 318.108 355.534 317.633 356.247 317.237 356.521 317.079 356.712 317 356.986 317.158 361.096 319.269 363.425 322.54 363.918 326.998 363.945 327.314 363.973 327.631 364 328Z" fill-rule="evenodd"/><path d="M351.391 304C354.682 304 357.402 306.561 357.701 310.013 358 313.27 355.688 316.36 352.479 316.889 351.69 317 350.902 316.889 350.113 316.889 349.759 316.861 349.596 316.666 349.515 316.304 348.944 313.854 347.556 312.045 345.381 310.848 345.082 310.709 345 310.514 345.027 310.208 345.082 306.784 347.937 304.028 351.391 304Z" fill-rule="evenodd"/><path d="M331.129 304.027C334.867 304 337.885 306.68 337.971 309.916 338 310.261 337.885 310.42 337.569 310.58 335.269 311.72 333.832 313.445 333.228 315.78 333.142 316.098 332.969 316.231 332.624 316.31 328.973 317 325.265 314.718 324.661 311.376 324 307.794 326.616 304.478 330.439 304.053 330.698 304.027 331.014 304.027 331.129 304.027Z" fill-rule="evenodd"/></g></svg>