<svg width="41" height="38" xmlns="http://www.w3.org/2000/svg" xmlns:xlink="http://www.w3.org/1999/xlink" overflow="hidden"><defs><clipPath id="clip0"><rect x="320" y="308" width="41" height="38"/></clipPath></defs><g clip-path="url(#clip0)" transform="translate(-320 -308)"><path d="M353.522 333.39C353.157 333.39 352.843 333.39 352.425 333.39 352.425 333.538 352.425 333.637 352.425 333.786 352.425 337 352.478 340.264 352.425 343.478 352.425 343.923 352.373 344.368 352.216 344.764 351.903 345.505 351.224 345.901 350.44 345.901 349.604 345.852 348.978 345.456 348.716 344.665 348.56 344.269 348.507 343.874 348.507 343.429 348.507 339.819 348.507 336.209 348.507 332.599 348.507 332.451 348.507 332.352 348.507 332.203 348.246 332.253 347.985 332.302 347.724 332.302 347.149 332.253 346.627 331.956 346.418 331.462 346.209 330.967 346.052 330.473 346.052 329.978 346 327.258 346.052 324.538 346 321.819 346 320.533 347.463 319.198 348.716 319.346 348.978 319.396 349.291 319.396 349.604 319.396 349.709 320.83 350.44 321.819 351.903 322.363 352.007 321.67 352.112 320.978 352.112 320.335 352.112 320.187 351.903 320.038 351.798 319.94 351.642 319.791 351.433 319.643 351.276 319.495 351.328 319.445 351.328 319.445 351.328 319.396 352.425 319.396 353.522 319.396 354.776 319.396 354.463 319.692 354.201 319.89 353.993 320.137 353.888 320.187 353.836 320.385 353.836 320.484 353.888 321.126 353.993 321.72 354.045 322.313 355.194 322.165 356.082 321.077 356.396 319.445 358.433 319 360 320.286 359.948 321.967 359.948 324.637 359.948 327.258 359.948 329.879 359.948 330.176 359.948 330.423 359.896 330.67 359.687 332.005 358.903 332.549 357.493 332.302 357.493 332.451 357.493 332.599 357.493 332.747 357.493 336.308 357.493 339.918 357.493 343.527 357.493 343.923 357.388 344.368 357.231 344.764 356.97 345.555 356.291 346 355.507 346 354.672 345.951 353.993 345.505 353.731 344.714 353.627 344.319 353.522 343.824 353.522 343.379 353.522 340.214 353.522 337 353.522 333.835 353.522 333.687 353.522 333.538 353.522 333.39Z" fill-rule="evenodd"/><path d="M338.68 328.036C338.68 328.372 338.68 328.707 338.68 328.995 338.68 332.93 338.68 336.913 338.68 340.848 338.68 340.992 338.68 341.136 338.68 341.28 338.577 341.76 338.32 342 337.806 342 336.162 342 334.518 342 332.822 342 332.36 342 332 341.712 332 341.232 332 340.8 332.257 340.464 332.771 340.416 333.387 340.416 334.004 340.416 334.621 340.416 335.391 340.416 336.162 340.416 336.933 340.416 336.933 336.289 336.933 332.163 336.933 328.036 336.162 328.036 335.391 328.036 334.672 328.036 334.055 328.036 333.439 328.036 332.874 328.036 332.308 328.036 332 327.748 332 327.268 332 326.788 332.308 326.5 332.874 326.452 333.953 326.452 335.083 326.452 336.213 326.452 336.47 326.452 336.676 326.452 336.933 326.452 336.933 321.845 336.933 317.238 336.933 312.584 336.83 312.584 336.676 312.584 336.522 312.584 335.34 312.584 334.107 312.584 332.925 312.584 332.36 312.584 332.051 312.296 332 311.816 332 311.336 332.308 311 332.874 311 334.518 311 336.111 311 337.755 311 338.423 311 338.68 311.288 338.68 311.96 338.68 315.799 338.68 319.59 338.68 323.381 338.68 324.389 338.68 325.396 338.68 326.452 338.834 326.452 338.988 326.452 339.142 326.452 340.735 326.452 342.328 326.452 343.921 326.452 344.383 326.452 344.692 326.644 344.846 326.98 345 327.556 344.64 328.036 344.024 328.036 342.431 328.036 340.787 328.036 339.194 328.036 339.04 328.036 338.885 328.036 338.68 328.036Z" fill-rule="evenodd"/><path d="M320 309C323.019 309 326.037 309 329 309 329 311.333 329 313.667 329 316 326.037 316 323.019 316 320 316 320 313.667 320 311.333 320 309Z" fill-rule="evenodd"/><path d="M320 346C320 343.317 320 340.683 320 338 323.019 338 325.981 338 329 338 329 340.634 329 343.317 329 346 326.037 346 323.075 346 320 346Z" fill-rule="evenodd"/><path d="M320 323C323.019 323 326.037 323 329 323 329 325.683 329 328.317 329 331 326.037 331 323.019 331 320 331 320 328.317 320 325.683 320 323Z" fill-rule="evenodd"/><path d="M349 313.525C349.053 312.157 349.426 310.991 350.278 309.977 351.982 308 354.698 308.051 356.349 309.977 358 311.954 358 314.995 356.349 316.972 354.645 319 351.822 318.949 350.172 316.922 349.373 315.908 349.053 314.742 349 313.525Z" fill-rule="evenodd"/></g></svg>