<svg width="35" height="43" xmlns="http://www.w3.org/2000/svg" xmlns:xlink="http://www.w3.org/1999/xlink" overflow="hidden"><defs><clipPath id="clip0"><rect x="323" y="596" width="35" height="43"/></clipPath></defs><g clip-path="url(#clip0)" transform="translate(-323 -596)"><path d="M325 612.019C325 603.742 331.712 597 340 597 348.288 597 355 603.742 355 612.019 355 620.258 348.288 626.963 340 627 331.712 627 325 620.296 325 612.019ZM344.35 608.985C341.425 608.985 338.575 608.985 335.65 608.985 335.425 611.008 335.388 612.992 335.65 614.978 338.575 614.978 341.425 614.978 344.35 614.978 344.575 612.992 344.575 611.008 344.35 608.985ZM343.862 606.139C343.712 605.689 343.6 605.277 343.487 604.865 342.962 603.33 342.362 601.831 341.2 600.67 340.337 599.734 339.625 599.697 338.8 600.67 338.2 601.345 337.675 602.169 337.263 602.992 336.775 603.966 336.475 605.052 336.062 606.139 338.725 606.139 341.237 606.139 343.862 606.139ZM336.175 617.861C336.212 617.936 336.175 618.011 336.212 618.049 336.625 619.772 337.225 621.382 338.275 622.768 338.538 623.105 338.837 623.404 339.175 623.667 339.737 624.116 340.225 624.154 340.788 623.704 341.163 623.367 341.538 622.992 341.837 622.581 342.625 621.532 343.112 620.371 343.487 619.135 343.6 618.723 343.712 618.311 343.862 617.861 341.237 617.861 338.725 617.861 336.175 617.861ZM332.575 608.985C331.188 608.985 329.763 608.985 328.337 608.985 327.812 611.008 327.812 612.992 328.337 614.978 329.8 614.978 331.225 614.978 332.575 614.978 332.575 612.992 332.575 611.008 332.575 608.985ZM347.5 608.985C347.5 610.034 347.5 611.008 347.5 611.981 347.5 612.992 347.5 613.966 347.5 614.978 348.812 614.978 350.237 614.978 351.625 614.978 352.15 612.992 352.15 611.008 351.625 608.985 350.2 608.985 348.812 608.985 347.5 608.985ZM350.612 606.176C349.188 603.554 347.237 601.644 344.612 600.483 344.688 600.67 344.763 600.82 344.875 600.97 345.775 602.431 346.337 604.041 346.788 605.689 346.825 605.876 346.975 606.139 347.125 606.139 348.212 606.176 349.337 606.176 350.612 606.176ZM350.612 617.824C349.487 617.824 348.475 617.824 347.5 617.824 347.05 617.786 346.825 617.899 346.712 618.386 346.337 620.109 345.663 621.757 344.688 623.292 344.65 623.367 344.65 623.442 344.575 623.629 347.275 622.356 349.188 620.446 350.612 617.824ZM335.388 600.483C332.725 601.644 330.812 603.554 329.425 606.139 329.65 606.139 329.763 606.176 329.913 606.176 330.775 606.176 331.675 606.139 332.538 606.176 332.95 606.214 333.138 606.064 333.25 605.614 333.663 603.891 334.3 602.206 335.312 600.708 335.35 600.633 335.35 600.558 335.388 600.483ZM329.388 617.824C330.812 620.446 332.725 622.356 335.35 623.517 335.125 623.03 334.788 622.581 334.6 622.056 334.112 620.783 333.663 619.509 333.212 618.198 333.138 618.049 332.987 617.861 332.875 617.824 331.75 617.824 330.663 617.824 329.388 617.824Z" fill-rule="evenodd"/><path d="M338.962 628C340 628 340.962 628 342.038 628 342.038 628.153 342.038 628.344 342.038 628.497 342.038 629.872 342.038 631.208 342 632.545 342 632.851 342.077 633.003 342.308 633.194 343.769 634.302 344 636.326 342.769 637.663 341.577 638.962 339.462 639 338.231 637.701 337 636.365 337.192 634.302 338.654 633.233 338.923 633.003 338.962 632.812 338.962 632.507 338.962 631.017 338.962 629.528 338.962 628Z" fill-rule="evenodd"/><path d="M336 634C336 635.025 336 635.975 336 637 335.586 637 335.248 637 334.871 637 331.787 637 328.702 637 325.655 637 324.677 637 324 636.392 324 635.519 324 634.608 324.639 634 325.618 634 328.928 634 332.276 634 335.586 634 335.699 634 335.812 634 336 634Z" fill-rule="evenodd"/><path d="M345 636.962C345 635.975 345 634.987 345 634 345.624 634 346.248 634 346.835 634 349.624 634 352.413 634 355.202 634 356.303 634 357 635.025 356.596 636.051 356.376 636.62 355.936 637 355.312 637 351.936 637 348.56 637 345.147 637 345.11 637 345.073 636.962 345 636.962Z" fill-rule="evenodd"/></g></svg>