<?xml version="1.0" standalone="no"?>
<!DOCTYPE svg PUBLIC "-//W3C//DTD SVG 20010904//EN"
 "http://www.w3.org/TR/2001/REC-SVG-20010904/DTD/svg10.dtd">
<svg version="1.0" xmlns="http://www.w3.org/2000/svg"
 width="700.000000pt" height="700.000000pt" viewBox="0 0 700.000000 700.000000"
 preserveAspectRatio="xMidYMid meet">
<metadata>
Created by potrace 1.14, written by Peter Selinger 2001-2017
</metadata>
<g transform="translate(0.000000,700.000000) scale(0.100000,-0.100000)"
fill="#000000" stroke="none">
<path d="M4032 5966 c-369 -71 -661 -292 -818 -621 -174 -365 -142 -789 85
-1117 35 -52 397 -419 1241 -1263 655 -654 1194 -1191 1198 -1193 14 -4 89
139 116 218 14 42 30 117 37 169 28 215 -45 463 -181 616 -30 34 -422 459
-870 943 -644 697 -822 895 -848 945 -105 200 -28 434 176 534 72 36 81 38
171 38 83 0 104 -4 153 -27 32 -15 73 -38 91 -52 21 -16 144 -192 313 -446
153 -231 282 -420 285 -420 9 0 85 169 107 240 39 122 47 182 46 340 0 128 -4
171 -23 245 -107 420 -407 724 -819 832 -121 31 -345 40 -460 19z"/>
<path d="M1537 4833 c-17 -26 -57 -214 -68 -310 -34 -318 46 -641 228 -917 60
-92 154 -190 1082 -1119 647 -649 1047 -1042 1101 -1083 161 -122 396 -222
609 -259 178 -32 457 -14 624 39 l67 21 -1819 1819 c-1000 1000 -1821 1814
-1824 1809z"/>
<path d="M1250 2854 c-49 -127 -80 -313 -80 -476 0 -355 137 -697 384 -956
122 -127 235 -211 396 -290 l135 -67 563 -3 c348 -1 563 1 560 7 -1 5 -428
404 -948 886 -520 483 -957 889 -972 903 l-27 25 -11 -29z"/>
</g>
</svg>
