<?xml version="1.0" standalone="no"?>
<!DOCTYPE svg PUBLIC "-//W3C//DTD SVG 20010904//EN"
 "http://www.w3.org/TR/2001/REC-SVG-20010904/DTD/svg10.dtd">
<svg version="1.0" xmlns="http://www.w3.org/2000/svg"
 width="700.000000pt" height="700.000000pt" viewBox="0 0 700.000000 700.000000"
 preserveAspectRatio="xMidYMid meet">
<metadata>
Created by potrace 1.14, written by Peter Selinger 2001-2017
</metadata>
<g transform="translate(0.000000,700.000000) scale(0.100000,-0.100000)"
fill="#000000" stroke="none">
<path d="M4032 5966 c-288 -55 -534 -205 -703 -429 -290 -385 -303 -915 -30
-1309 35 -52 397 -419 1241 -1263 655 -654 1194 -1191 1198 -1193 11 -3 67 92
97 166 65 159 79 362 36 522 -31 118 -92 237 -159 313 -31 35 -424 461 -872
945 -873 945 -870 941 -890 1067 -27 171 65 341 228 418 61 29 76 32 162 32
82 0 103 -4 152 -27 32 -15 73 -38 91 -52 21 -16 144 -192 313 -446 153 -231
282 -420 285 -420 9 0 85 169 107 240 38 122 47 183 46 340 0 129 -4 170 -23
245 -108 421 -407 724 -819 832 -121 31 -345 40 -460 19z"/>
<path d="M1530 4814 c-45 -117 -75 -337 -66 -494 14 -267 87 -493 233 -714 60
-92 154 -190 1082 -1119 654 -656 1046 -1041 1101 -1083 163 -123 395 -223
604 -259 185 -31 460 -15 629 39 l67 21 -1819 1819 -1820 1820 -11 -30z"/>
<path d="M1250 2854 c-49 -128 -80 -310 -80 -471 0 -362 135 -700 384 -961
122 -127 235 -211 396 -290 l135 -67 563 -3 c353 -1 563 1 560 7 -1 5 -428
404 -948 886 -520 483 -957 889 -972 903 l-27 25 -11 -29z"/>
</g>
</svg>
